<svg xmlns="http://www.w3.org/2000/svg">
  <symbol id="car" viewBox="0 0 512 512">
    <g>
      <path fill="currentColor" d="M319.5 128a48 48 0 0 1 44.57 30.17L384 208H128l19.93-49.83A48 48 0 0 1 192.5 128zM80 384a63.82 63.82 0 0 1-47.57-21.2A31.82 31.82 0 0 0 32 368v48a32 32 0 0 0 32 32h32a32 32 0 0 0 32-32v-32zm352 0h-48v32a32 32 0 0 0 32 32h32a32 32 0 0 0 32-32v-48a31.82 31.82 0 0 0-.43-5.2A63.82 63.82 0 0 1 432 384z" class="opacity-50"></path>
      <path fill="currentColor" d="M500 176h-59.88l-16.64-41.6A111.43 111.43 0 0 0 319.5 64h-127a111.47 111.47 0 0 0-104 70.4L71.87 176H12A12 12 0 0 0 .37 190.91l6 24A12 12 0 0 0 18 224h20.08A63.55 63.55 0 0 0 16 272v48a64 64 0 0 0 64 64h352a64 64 0 0 0 64-64v-48a63.58 63.58 0 0 0-22.07-48H494a12 12 0 0 0 11.64-9.09l6-24A12 12 0 0 0 500 176zm-352.07-17.83A48 48 0 0 1 192.5 128h127a48 48 0 0 1 44.57 30.17L384 208H128zM96 256c19.2 0 48 28.71 48 47.85s-28.8 15.95-48 15.95-32-12.8-32-31.9S76.8 256 96 256zm272 47.85c0-19.14 28.8-47.85 48-47.85s32 12.76 32 31.9-12.8 31.9-32 31.9-48 3.2-48-15.95z"></path>
    </g>
  </symbol>

  <symbol id="tachometer" viewBox="0 0 576 512">
    <g>
      <path fill="currentColor" d="M288 32C128.94 32 0 160.94 0 320a286.5 286.5 0 0 0 39.06 144.8c5.61 9.62 16.3 15.2 27.44 15.2h443c11.14 0 21.83-5.58 27.44-15.2A286.5 286.5 0 0 0 576 320c0-159.06-128.94-288-288-288zm55.12 384H232.88a62.26 62.26 0 0 1 .47-64.86L124.8 206.41a24 24 0 0 1 38.41-28.81l108.56 144.74A63.5 63.5 0 0 1 343.12 416z" class="opacity-50"></path>
      <path fill="currentColor" d="M343.12 416H232.88a62.26 62.26 0 0 1 .47-64.86L124.8 206.41a24 24 0 0 1 38.41-28.81l108.56 144.74A63.5 63.5 0 0 1 343.12 416z"></path>
    </g>
  </symbol>

  <symbol id="calendar" viewBox="0 0 448 512">
    <g>
      <path fill="currentColor" d="M0 192v272a48 48 0 0 0 48 48h352a48 48 0 0 0 48-48V192zm128 244a12 12 0 0 1-12 12H76a12 12 0 0 1-12-12v-40a12 12 0 0 1 12-12h40a12 12 0 0 1 12 12zm0-128a12 12 0 0 1-12 12H76a12 12 0 0 1-12-12v-40a12 12 0 0 1 12-12h40a12 12 0 0 1 12 12zm128 128a12 12 0 0 1-12 12h-40a12 12 0 0 1-12-12v-40a12 12 0 0 1 12-12h40a12 12 0 0 1 12 12zm0-128a12 12 0 0 1-12 12h-40a12 12 0 0 1-12-12v-40a12 12 0 0 1 12-12h40a12 12 0 0 1 12 12zm128 128a12 12 0 0 1-12 12h-40a12 12 0 0 1-12-12v-40a12 12 0 0 1 12-12h40a12 12 0 0 1 12 12zm0-128a12 12 0 0 1-12 12h-40a12 12 0 0 1-12-12v-40a12 12 0 0 1 12-12h40a12 12 0 0 1 12 12zm-80-180h32a16 16 0 0 0 16-16V16a16 16 0 0 0-16-16h-32a16 16 0 0 0-16 16v96a16 16 0 0 0 16 16zm-192 0h32a16 16 0 0 0 16-16V16a16 16 0 0 0-16-16h-32a16 16 0 0 0-16 16v96a16 16 0 0 0 16 16z" class="opacity-50"></path>
      <path fill="currentColor" d="M448 112v80H0v-80a48 48 0 0 1 48-48h48v48a16 16 0 0 0 16 16h32a16 16 0 0 0 16-16V64h128v48a16 16 0 0 0 16 16h32a16 16 0 0 0 16-16V64h48a48 48 0 0 1 48 48z"></path>
    </g>
  </symbol>

  <symbol id="grid-view" viewBox="0 0 512 512">
    <g>
      <path fill="currentColor" d="M306.67 352H205.33a24 24 0 0 0-24 24v80a24 24 0 0 0 24 24h101.34a24 24 0 0 0 24-24v-80a24 24 0 0 0-24-24zM488 192H386.67a24 24 0 0 0-24 24v80a24 24 0 0 0 24 24H488a24 24 0 0 0 24-24v-80a24 24 0 0 0-24-24zM306.67 32H205.33a24 24 0 0 0-24 24v80a24 24 0 0 0 24 24h101.34a24 24 0 0 0 24-24V56a24 24 0 0 0-24-24zM125.33 192H24a24 24 0 0 0-24 24v80a24 24 0 0 0 24 24h101.33a24 24 0 0 0 24-24v-80a24 24 0 0 0-24-24z" class="opacity-50"></path>
      <path fill="currentColor" d="M488 352H386.67a24 24 0 0 0-24 24v80a24 24 0 0 0 24 24H488a24 24 0 0 0 24-24v-80a24 24 0 0 0-24-24zM306.67 192H205.33a24 24 0 0 0-24 24v80a24 24 0 0 0 24 24h101.34a24 24 0 0 0 24-24v-80a24 24 0 0 0-24-24zM488 32H386.67a24 24 0 0 0-24 24v80a24 24 0 0 0 24 24H488a24 24 0 0 0 24-24V56a24 24 0 0 0-24-24zm-362.67 0H24A24 24 0 0 0 0 56v80a24 24 0 0 0 24 24h101.33a24 24 0 0 0 24-24V56a24 24 0 0 0-24-24zm0 320H24a24 24 0 0 0-24 24v80a24 24 0 0 0 24 24h101.33a24 24 0 0 0 24-24v-80a24 24 0 0 0-24-24z"></path>
    </g>
  </symbol>

  <symbol id="list-view" viewBox="0 0 512 512">
    <g>
      <path fill="currentColor" d="M488 352H205.33a24 24 0 0 0-24 24v80a24 24 0 0 0 24 24H488a24 24 0 0 0 24-24v-80a24 24 0 0 0-24-24zm0-320H205.33a24 24 0 0 0-24 24v80a24 24 0 0 0 24 24H488a24 24 0 0 0 24-24V56a24 24 0 0 0-24-24zm0 160H205.33a24 24 0 0 0-24 24v80a24 24 0 0 0 24 24H488a24 24 0 0 0 24-24v-80a24 24 0 0 0-24-24z" class="opacity-50"></path>
      <path fill="currentColor" d="M125.33 192H24a24 24 0 0 0-24 24v80a24 24 0 0 0 24 24h101.33a24 24 0 0 0 24-24v-80a24 24 0 0 0-24-24zm0-160H24A24 24 0 0 0 0 56v80a24 24 0 0 0 24 24h101.33a24 24 0 0 0 24-24V56a24 24 0 0 0-24-24zm0 320H24a24 24 0 0 0-24 24v80a24 24 0 0 0 24 24h101.33a24 24 0 0 0 24-24v-80a24 24 0 0 0-24-24z"></path>
    </g>
  </symbol>

  <symbol id="gas-pump" viewBox="0 0 512 512">
    <g>
      <path fill="currentColor" d="M256 0H96a64.06 64.06 0 0 0-64 64v384h288V64a64.06 64.06 0 0 0-64-64zm0 192H96V64h160z" class="opacity-50"></path>
      <path fill="currentColor" d="M256 64H96v128h160zm80 384H16a16 16 0 0 0-16 16v32a16 16 0 0 0 16 16h320a16 16 0 0 0 16-16v-32a16 16 0 0 0-16-16zm157.2-340.7l-81-81a16.06 16.06 0 0 0-22.6 0l-11.3 11.3a16.06 16.06 0 0 0 0 22.6L416 97.9V160a55.9 55.9 0 0 0 48 55.2V376a24 24 0 0 1-48 0v-32a88 88 0 0 0-88-88h-8v48h8a40 40 0 0 1 40 40v27.8c0 37.7 27 72 64.5 75.9A72.2 72.2 0 0 0 512 376V152.6a64.15 64.15 0 0 0-18.8-45.3z"></path>
    </g>
  </symbol>

  <symbol id="cogs" viewBox="0 0 640 512">
    <g>
      <path fill="currentColor" d="M638.41 387a12.34 12.34 0 0 0-12.2-10.3h-16.5a86.33 86.33 0 0 0-15.9-27.4L602 335a12.42 12.42 0 0 0-2.8-15.7 110.5 110.5 0 0 0-32.1-18.6 12.36 12.36 0 0 0-15.1 5.4l-8.2 14.3a88.86 88.86 0 0 0-31.7 0l-8.2-14.3a12.36 12.36 0 0 0-15.1-5.4 111.83 111.83 0 0 0-32.1 18.6 12.3 12.3 0 0 0-2.8 15.7l8.2 14.3a86.33 86.33 0 0 0-15.9 27.4h-16.5a12.43 12.43 0 0 0-12.2 10.4 112.66 112.66 0 0 0 0 37.1 12.34 12.34 0 0 0 12.2 10.3h16.5a86.33 86.33 0 0 0 15.9 27.4l-8.2 14.3a12.42 12.42 0 0 0 2.8 15.7 110.5 110.5 0 0 0 32.1 18.6 12.36 12.36 0 0 0 15.1-5.4l8.2-14.3a88.86 88.86 0 0 0 31.7 0l8.2 14.3a12.36 12.36 0 0 0 15.1 5.4 111.83 111.83 0 0 0 32.1-18.6 12.3 12.3 0 0 0 2.8-15.7l-8.2-14.3a86.33 86.33 0 0 0 15.9-27.4h16.5a12.43 12.43 0 0 0 12.2-10.4 112.66 112.66 0 0 0 .01-37.1zm-136.8 44.9c-29.6-38.5 14.3-82.4 52.8-52.8 29.59 38.49-14.3 82.39-52.8 52.79zm136.8-343.8a12.34 12.34 0 0 0-12.2-10.3h-16.5a86.33 86.33 0 0 0-15.9-27.4l8.2-14.3a12.42 12.42 0 0 0-2.8-15.7 110.5 110.5 0 0 0-32.1-18.6A12.36 12.36 0 0 0 552 7.19l-8.2 14.3a88.86 88.86 0 0 0-31.7 0l-8.2-14.3a12.36 12.36 0 0 0-15.1-5.4 111.83 111.83 0 0 0-32.1 18.6 12.3 12.3 0 0 0-2.8 15.7l8.2 14.3a86.33 86.33 0 0 0-15.9 27.4h-16.5a12.43 12.43 0 0 0-12.2 10.4 112.66 112.66 0 0 0 0 37.1 12.34 12.34 0 0 0 12.2 10.3h16.5a86.33 86.33 0 0 0 15.9 27.4l-8.2 14.3a12.42 12.42 0 0 0 2.8 15.7 110.5 110.5 0 0 0 32.1 18.6 12.36 12.36 0 0 0 15.1-5.4l8.2-14.3a88.86 88.86 0 0 0 31.7 0l8.2 14.3a12.36 12.36 0 0 0 15.1 5.4 111.83 111.83 0 0 0 32.1-18.6 12.3 12.3 0 0 0 2.8-15.7l-8.2-14.3a86.33 86.33 0 0 0 15.9-27.4h16.5a12.43 12.43 0 0 0 12.2-10.4 112.66 112.66 0 0 0 .01-37.1zm-136.8 45c-29.6-38.5 14.3-82.5 52.8-52.8 29.59 38.49-14.3 82.39-52.8 52.79z" class="opacity-50"></path>
      <path fill="currentColor" d="M420 303.79L386.31 287a173.78 173.78 0 0 0 0-63.5l33.7-16.8c10.1-5.9 14-18.2 10-29.1-8.9-24.2-25.9-46.4-42.1-65.8a23.93 23.93 0 0 0-30.3-5.3l-29.1 16.8a173.66 173.66 0 0 0-54.9-31.7V58a24 24 0 0 0-20-23.6 228.06 228.06 0 0 0-76 .1A23.82 23.82 0 0 0 158 58v33.7a171.78 171.78 0 0 0-54.9 31.7L74 106.59a23.91 23.91 0 0 0-30.3 5.3c-16.2 19.4-33.3 41.6-42.2 65.8a23.84 23.84 0 0 0 10.5 29l33.3 16.9a173.24 173.24 0 0 0 0 63.4L12 303.79a24.13 24.13 0 0 0-10.5 29.1c8.9 24.1 26 46.3 42.2 65.7a23.93 23.93 0 0 0 30.3 5.3l29.1-16.7a173.66 173.66 0 0 0 54.9 31.7v33.6a24 24 0 0 0 20 23.6 224.88 224.88 0 0 0 75.9 0 23.93 23.93 0 0 0 19.7-23.6v-33.6a171.78 171.78 0 0 0 54.9-31.7l29.1 16.8a23.91 23.91 0 0 0 30.3-5.3c16.2-19.4 33.7-41.6 42.6-65.8a24 24 0 0 0-10.5-29.1zm-151.3 4.3c-77 59.2-164.9-28.7-105.7-105.7 77-59.2 164.91 28.7 105.71 105.7z"></path>
    </g>
  </symbol>
  <symbol id="wind" viewBox="0 0 512 512">
    <g>
      <path fill="currentColor" d="M508.88 394.71c-9.6 41.1-43.5 74-84.69 82.7-58.9 12.5-111.6-21.7-129.39-72.3-3.7-10.3 4.4-21.1 15.29-21.1h33.8c5.8 0 11.6 2.6 14.5 7.6A47.93 47.93 0 1 0 400 320H283.5a126.41 126.41 0 0 0-39.8-64H400c70.48 0 126 65.5 108.88 138.71z" class="opacity-50"></path>
      <path fill="currentColor" d="M156.76 256H16a16 16 0 0 0-16 16v32a16 16 0 0 0 16 16h142.26c15.9 0 30.81 10.9 33.41 26.6a32.06 32.06 0 0 1-62 15.5c-2.11-6.3-8.61-10.1-15.21-10.1H81.63c-9.8 0-17.71 8.8-15.91 18.4a96 96 0 0 0 189.47-31c-6.1-48.4-49.72-83.4-98.43-83.4zm289.07-148.72c-7.6-36.21-36.91-65.52-73.11-73.12a96.22 96.22 0 0 0-114.9 75.52c-1.9 9.6 6.1 18.3 15.8 18.3h32.8c6.7 0 13.1-3.8 15.2-10.1a32 32 0 0 1 62 15.5C381 149.09 366.22 160 350.22 160H16a16 16 0 0 0-16 16v32a16 16 0 0 0 16 16h336a96.2 96.2 0 0 0 93.83-116.72z"></path>
    </g>
  </symbol>
</svg>