<svg xmlns="http://www.w3.org/2000/svg">
  <symbol id="car" viewBox="0 0 512 512">
    <g>
      <path fill="currentColor" d="M319.5 128a48 48 0 0 1 44.57 30.17L384 208H128l19.93-49.83A48 48 0 0 1 192.5 128zM80 384a63.82 63.82 0 0 1-47.57-21.2A31.82 31.82 0 0 0 32 368v48a32 32 0 0 0 32 32h32a32 32 0 0 0 32-32v-32zm352 0h-48v32a32 32 0 0 0 32 32h32a32 32 0 0 0 32-32v-48a31.82 31.82 0 0 0-.43-5.2A63.82 63.82 0 0 1 432 384z" class="opacity-50"></path>
      <path fill="currentColor" d="M500 176h-59.88l-16.64-41.6A111.43 111.43 0 0 0 319.5 64h-127a111.47 111.47 0 0 0-104 70.4L71.87 176H12A12 12 0 0 0 .37 190.91l6 24A12 12 0 0 0 18 224h20.08A63.55 63.55 0 0 0 16 272v48a64 64 0 0 0 64 64h352a64 64 0 0 0 64-64v-48a63.58 63.58 0 0 0-22.07-48H494a12 12 0 0 0 11.64-9.09l6-24A12 12 0 0 0 500 176zm-352.07-17.83A48 48 0 0 1 192.5 128h127a48 48 0 0 1 44.57 30.17L384 208H128zM96 256c19.2 0 48 28.71 48 47.85s-28.8 15.95-48 15.95-32-12.8-32-31.9S76.8 256 96 256zm272 47.85c0-19.14 28.8-47.85 48-47.85s32 12.76 32 31.9-12.8 31.9-32 31.9-48 3.2-48-15.95z"></path>
    </g>
  </symbol>

  <symbol id="tachometer" viewBox="0 0 576 512">
    <g>
      <path fill="currentColor" d="M288 32C128.94 32 0 160.94 0 320a286.5 286.5 0 0 0 39.06 144.8c5.61 9.62 16.3 15.2 27.44 15.2h443c11.14 0 21.83-5.58 27.44-15.2A286.5 286.5 0 0 0 576 320c0-159.06-128.94-288-288-288zm55.12 384H232.88a62.26 62.26 0 0 1 .47-64.86L124.8 206.41a24 24 0 0 1 38.41-28.81l108.56 144.74A63.5 63.5 0 0 1 343.12 416z" class="opacity-50"></path>
      <path fill="currentColor" d="M343.12 416H232.88a62.26 62.26 0 0 1 .47-64.86L124.8 206.41a24 24 0 0 1 38.41-28.81l108.56 144.74A63.5 63.5 0 0 1 343.12 416z"></path>
    </g>
  </symbol>

  <symbol id="calendar" viewBox="0 0 448 512">
    <g>
      <path fill="currentColor" d="M0 192v272a48 48 0 0 0 48 48h352a48 48 0 0 0 48-48V192zm128 244a12 12 0 0 1-12 12H76a12 12 0 0 1-12-12v-40a12 12 0 0 1 12-12h40a12 12 0 0 1 12 12zm0-128a12 12 0 0 1-12 12H76a12 12 0 0 1-12-12v-40a12 12 0 0 1 12-12h40a12 12 0 0 1 12 12zm128 128a12 12 0 0 1-12 12h-40a12 12 0 0 1-12-12v-40a12 12 0 0 1 12-12h40a12 12 0 0 1 12 12zm0-128a12 12 0 0 1-12 12h-40a12 12 0 0 1-12-12v-40a12 12 0 0 1 12-12h40a12 12 0 0 1 12 12zm128 128a12 12 0 0 1-12 12h-40a12 12 0 0 1-12-12v-40a12 12 0 0 1 12-12h40a12 12 0 0 1 12 12zm0-128a12 12 0 0 1-12 12h-40a12 12 0 0 1-12-12v-40a12 12 0 0 1 12-12h40a12 12 0 0 1 12 12zm-80-180h32a16 16 0 0 0 16-16V16a16 16 0 0 0-16-16h-32a16 16 0 0 0-16 16v96a16 16 0 0 0 16 16zm-192 0h32a16 16 0 0 0 16-16V16a16 16 0 0 0-16-16h-32a16 16 0 0 0-16 16v96a16 16 0 0 0 16 16z" class="opacity-50"></path>
      <path fill="currentColor" d="M448 112v80H0v-80a48 48 0 0 1 48-48h48v48a16 16 0 0 0 16 16h32a16 16 0 0 0 16-16V64h128v48a16 16 0 0 0 16 16h32a16 16 0 0 0 16-16V64h48a48 48 0 0 1 48 48z"></path>
    </g>
  </symbol>

  <symbol id="grid-view" viewBox="0 0 512 512">
    <g>
      <path fill="currentColor" d="M306.67 352H205.33a24 24 0 0 0-24 24v80a24 24 0 0 0 24 24h101.34a24 24 0 0 0 24-24v-80a24 24 0 0 0-24-24zM488 192H386.67a24 24 0 0 0-24 24v80a24 24 0 0 0 24 24H488a24 24 0 0 0 24-24v-80a24 24 0 0 0-24-24zM306.67 32H205.33a24 24 0 0 0-24 24v80a24 24 0 0 0 24 24h101.34a24 24 0 0 0 24-24V56a24 24 0 0 0-24-24zM125.33 192H24a24 24 0 0 0-24 24v80a24 24 0 0 0 24 24h101.33a24 24 0 0 0 24-24v-80a24 24 0 0 0-24-24z" class="opacity-50"></path>
      <path fill="currentColor" d="M488 352H386.67a24 24 0 0 0-24 24v80a24 24 0 0 0 24 24H488a24 24 0 0 0 24-24v-80a24 24 0 0 0-24-24zM306.67 192H205.33a24 24 0 0 0-24 24v80a24 24 0 0 0 24 24h101.34a24 24 0 0 0 24-24v-80a24 24 0 0 0-24-24zM488 32H386.67a24 24 0 0 0-24 24v80a24 24 0 0 0 24 24H488a24 24 0 0 0 24-24V56a24 24 0 0 0-24-24zm-362.67 0H24A24 24 0 0 0 0 56v80a24 24 0 0 0 24 24h101.33a24 24 0 0 0 24-24V56a24 24 0 0 0-24-24zm0 320H24a24 24 0 0 0-24 24v80a24 24 0 0 0 24 24h101.33a24 24 0 0 0 24-24v-80a24 24 0 0 0-24-24z"></path>
    </g>
  </symbol>

  <symbol id="list-view" viewBox="0 0 512 512">
    <g>
      <path fill="currentColor" d="M488 352H205.33a24 24 0 0 0-24 24v80a24 24 0 0 0 24 24H488a24 24 0 0 0 24-24v-80a24 24 0 0 0-24-24zm0-320H205.33a24 24 0 0 0-24 24v80a24 24 0 0 0 24 24H488a24 24 0 0 0 24-24V56a24 24 0 0 0-24-24zm0 160H205.33a24 24 0 0 0-24 24v80a24 24 0 0 0 24 24H488a24 24 0 0 0 24-24v-80a24 24 0 0 0-24-24z" class="opacity-50"></path>
      <path fill="currentColor" d="M125.33 192H24a24 24 0 0 0-24 24v80a24 24 0 0 0 24 24h101.33a24 24 0 0 0 24-24v-80a24 24 0 0 0-24-24zm0-160H24A24 24 0 0 0 0 56v80a24 24 0 0 0 24 24h101.33a24 24 0 0 0 24-24V56a24 24 0 0 0-24-24zm0 320H24a24 24 0 0 0-24 24v80a24 24 0 0 0 24 24h101.33a24 24 0 0 0 24-24v-80a24 24 0 0 0-24-24z"></path>
    </g>
  </symbol>
</svg>